<svg xmlns="http://www.w3.org/2000/svg" xmlns:xlink="http://www.w3.org/1999/xlink" id="Layer_1" x="0px" y="0px" width="129.3px" height="129.3px" viewBox="0 0 129.3 129.3" style="enable-background:new 0 0 129.3 129.3;" xml:space="preserve"> <style type="text/css"> .st0{fill:#FAFBFA;} .st1{fill:#CEB62C;} .st2{fill:#201E5A;} </style> <g> <path class="st0" d="M12.1,38.3c0-0.1-0.1-0.1-0.1-0.1C12.1,38.1,12.1,38.2,12.1,38.3C12.2,38.2,12.1,38.3,12.1,38.3z"></path> <g> <path class="st1" d="M36.5,40.5c-0.2,0-0.4,0.1-0.4,0.2c-0.1,0.3,0,0.5,0.2,0.7c1.1,1.3,2.1,2.6,3.2,3.9c2.1,2.6,4.2,5.1,6.4,7.7 c1.1,1.3,2.2,2.6,3.3,4c0.2,0.3,0.5,0.5,0.9,0.2s0.1-0.6-0.1-0.9c-1.2-1.5-2.4-3-3.7-4.5c-1.6-2-3.2-3.9-4.8-5.9 c-1.3-1.6-2.7-3.3-4-4.9C37.1,40.9,36.8,40.6,36.5,40.5z M61,54.4c0.1-0.7-0.3-1.4-0.4-2.1c-0.2-1.8-0.5-3.5-0.8-5.3 c-0.2-1.9-0.7-3.8-1-5.7c-0.3-2.1-0.6-4.2-1-6.2c-0.3-1.8-0.5-3.5-0.8-5.3c-0.1-0.4-0.2-0.8-0.6-0.7C55.9,29.2,56,29.6,56,30 c0.1,0.6,0.3,1.3,0.4,1.9c0.1,1.6,0.5,3.1,0.8,4.6c0.3,1.8,0.6,3.6,0.9,5.4c0.2,1.4,0.4,2.7,0.6,4.1c0.4,2.1,0.6,4.2,1,6.2 c0.1,0.9,0.3,1.8,0.5,2.7c0,0.2,0.2,0.4,0.4,0.4c0.3,0,0.3-0.3,0.3-0.5C61,54.5,61,54.4,61,54.4z M63.3,36.7 c0.1-1.9-0.1-4.3-0.2-6.6c0-0.4-0.1-0.8-0.5-0.8s-0.5,0.4-0.5,0.8c0,0.8,0.1,1.7,0.1,2.5c0.1,3.2,0.1,6.4,0.3,9.6 c0.1,1.8,0.1,3.6,0.1,5.4c0,0.2,0,0.5,0.2,0.7c0.1,0.2,0.2,0.4,0.4,0.4c0.3,0,0.4-0.2,0.4-0.4c0.1-0.5,0.1-1,0.1-1.5 C63.5,43.5,63.2,40.3,63.3,36.7z M82,54.4c0.3,0,0.4-0.2,0.6-0.4c2.5-2.9,5.1-5.9,7.6-8.8c0.7-0.8,1.4-1.6,2.1-2.4 c0.2-0.3,0.4-0.6,0.1-0.9c-0.3-0.3-0.6-0.1-0.8,0.1c-0.1,0.1-0.3,0.2-0.4,0.4c-2.9,3.4-5.9,6.8-8.8,10.3c-0.3,0.3-0.5,0.6-0.7,1 C81.4,54.1,81.6,54.4,82,54.4z M85.9,36.2c0-0.2,0-0.4-0.2-0.5s-0.4,0-0.5,0.1c-0.3,0.3-0.5,0.6-0.7,0.9c-0.3,0.5-0.5,1.1-0.8,1.6 c-1.9,3.4-3.7,6.8-5.6,10.2c-0.2,0.3-0.3,0.6,0.1,0.9c0.4,0.3,0.6,0,0.8-0.3c0.2-0.3,0.4-0.7,0.6-1.1c0.8-1.4,1.6-2.9,2.4-4.3 c1-1.8,2-3.6,3-5.4C85.2,37.6,85.8,37,85.9,36.2z M45.9,55.8c0-0.3-0.3-0.6-0.5-0.8c-3.7-3.5-7.4-7-11.1-10.5 c-0.1-0.1-0.2-0.3-0.4-0.4c-0.2-0.1-0.4-0.2-0.6,0c-0.2,0.2-0.2,0.4,0,0.6c0.1,0.1,0.2,0.2,0.3,0.3c1.7,1.6,3.3,3.1,5,4.7 c2,1.9,4,3.8,6,5.6c0.3,0.3,0.6,0.5,0.9,0.7C45.7,56.3,45.9,56.1,45.9,55.8z M50.9,50.6c0-0.1-0.1-0.2-0.1-0.3 c-0.4-0.8-0.9-1.6-1.3-2.3c-1.5-2.7-3-5.4-4.5-8.1c-0.4-0.7-0.8-1.4-1.2-2.1c-0.1-0.2-0.3-0.5-0.6-0.3c-0.2,0.1-0.2,0.4,0,0.6 c0.4,0.7,0.7,1.3,1.1,2c1.6,3,3.2,5.9,4.8,8.9c0.3,0.6,0.7,1.2,1.1,1.8c0.1,0.2,0.3,0.2,0.5,0.2C50.8,50.9,50.9,50.8,50.9,50.6z M94.9,46.3c0-0.4-0.3-0.6-0.6-0.5c-0.2,0.1-0.4,0.3-0.6,0.4c-0.8,0.8-1.7,1.6-2.5,2.4c-1.2,1.1-2.4,2.2-3.6,3.4 c-0.3,0.3-0.6,0.6-0.2,1s0.7,0.1,1-0.2c0.1,0,0.1-0.1,0.1-0.1c2-1.9,4-3.9,6-5.8C94.7,46.7,94.9,46.5,94.9,46.3z M80.8,31.8 c0-0.3-0.1-0.5-0.4-0.6c-0.2-0.1-0.4,0-0.5,0.2s-0.3,0.5-0.4,0.7c-0.5,1.3-1.1,2.7-1.6,4c-0.3,0.9-0.7,1.8-1.1,2.7 c-0.1,0.3-0.2,0.6,0.2,0.8c0.3,0.2,0.6,0,0.8-0.3c0.1-0.1,0.1-0.2,0.1-0.3c0.1-0.7,0.6-1.4,0.8-2.1c0.5-1.5,1.2-2.9,1.7-4.3 C80.7,32.4,80.7,32,80.8,31.8z M53.9,39.2c-0.1-0.3-0.1-0.7-0.2-1c-0.4-1-0.7-2.1-1-3.2c-0.4-1.4-0.8-2.7-1.2-4.1 c-0.1-0.4-0.3-0.6-0.7-0.6c-0.4,0.1-0.3,0.4-0.3,0.7c0,0.1,0,0.2,0,0.3c0.8,2.2,1.3,4.4,2,6.7c0.1,0.5,0.3,0.9,0.5,1.3 c0.1,0.2,0.3,0.3,0.5,0.3C53.9,39.6,53.9,39.4,53.9,39.2z M47.2,35.6c-0.4,0.1-0.4,0.3-0.3,0.6c0.1,0.3,0.2,0.7,0.4,1 c1.1,2.4,2.1,4.8,3.2,7.2c0.1,0.3,0.1,0.7,0.6,0.5c0.4-0.1,0.4-0.5,0.3-0.8c-0.1-0.2-0.1-0.4-0.2-0.5c-0.5-1.2-1.1-2.5-1.6-3.7 s-1.1-2.5-1.6-3.7C47.7,35.8,47.5,35.6,47.2,35.6z M79.7,51.8c0.3-0.1,0.6-0.3,0.8-0.6c1.1-1.4,2.1-2.8,3.1-4.2 c0.4-0.5,0.7-1,1.1-1.5c0.2-0.3,0.3-0.6-0.1-0.8c-0.3-0.2-0.6,0-0.8,0.3c-0.1,0.1-0.1,0.1-0.1,0.2c-0.8,1.1-1.6,2.1-2.4,3.2 c-0.6,0.8-1.3,1.7-1.9,2.5C79.1,51.3,79.3,51.8,79.7,51.8z M46,47.1c-0.2,0-0.3,0.1-0.4,0.2c-0.1,0.2,0,0.4,0.1,0.5 c0.8,1.2,1.5,2.5,2.3,3.7c0.6,1,1.3,2,1.9,3c0.1,0.2,0.3,0.4,0.6,0.3c0.3-0.1,0.4-0.4,0.2-0.7c-0.1-0.2-0.2-0.4-0.3-0.6 c-0.3-0.5-0.7-1.1-1-1.6c-0.9-1.5-1.8-3-2.8-4.4C46.5,47.3,46.3,47.1,46,47.1z M44.1,58.5c-0.1-0.3-0.2-0.5-0.5-0.7 c-1.5-1.2-2.9-2.3-4.4-3.5c-0.9-0.7-1.7-1.4-2.6-2.1c-0.2-0.2-0.5-0.3-0.7-0.1c-0.3,0.3,0,0.5,0.2,0.7s0.4,0.3,0.6,0.5 c1.6,1.3,3.1,2.5,4.7,3.8c0.7,0.5,1.3,1.1,2,1.6c0.2,0.1,0.4,0.2,0.6,0.1C44.1,58.7,44.2,58.6,44.1,58.5z M94.4,55.2 c0-0.5-0.3-0.7-0.7-0.5c-1.3,0.8-2.5,1.6-3.7,2.4c-0.2,0.2-0.3,0.4-0.2,0.6c0.1,0.3,0.4,0.4,0.7,0.2c0.2-0.1,0.4-0.1,0.5-0.2 c1-0.7,2.1-1.3,3.1-2C94.2,55.6,94.4,55.5,94.4,55.2z M27.9,50.1c-0.3,0-0.4,0.1-0.5,0.3s0.1,0.4,0.2,0.5c1.3,1,2.6,2.1,3.9,3.1 c0.2,0.2,0.5,0.4,0.7,0c0.2-0.3,0.1-0.6-0.2-0.8c-1-0.7-1.9-1.5-2.8-2.2C28.8,50.7,28.3,50.4,27.9,50.1z M95.5,62.4 c0.1,0,0.2-0.1,0.4-0.1c1.2-0.5,2.5-0.9,3.7-1.4c0.7-0.3,1.4-0.6,2.1-0.9c0.2-0.1,0.5-0.3,0.3-0.6c-0.1-0.3-0.4-0.2-0.6-0.1 c-2,0.8-4,1.6-6.1,2.3c-0.2,0.1-0.4,0.2-0.3,0.4C95.1,62.3,95.3,62.4,95.5,62.4z M42.4,61.6c0-0.4-0.2-0.5-0.4-0.7 c-0.6-0.5-1.3-0.9-1.9-1.4c-0.8-0.6-1.6-1.3-2.4-1.9c-0.2-0.2-0.4-0.2-0.6,0c-0.2,0.2-0.1,0.4,0.1,0.6c0.1,0.1,0.2,0.2,0.3,0.3 c0.9,0.8,1.9,1.4,2.9,2.1c0.5,0.4,1,0.8,1.6,1.2C42.2,62,42.4,61.9,42.4,61.6z M98.1,65.6c1.3-0.3,2.6-0.7,3.9-1 c0.3-0.1,0.6-0.1,0.6-0.5c-0.1-0.4-0.5-0.4-0.8-0.3c-1.3,0.3-2.6,0.7-3.9,1c-0.2,0.1-0.4,0.2-0.3,0.5 C97.6,65.5,97.8,65.6,98.1,65.6z M27.1,57.1c-0.2,0-0.4,0-0.5,0.2c-0.1,0.3,0.1,0.4,0.3,0.5c1.3,0.7,2.7,1.3,4,1.8 c0.2,0.1,0.5,0.1,0.5-0.2c0.1-0.3-0.1-0.5-0.4-0.6c-0.7-0.3-1.4-0.6-2.1-0.9C28.4,57.6,27.8,57.4,27.1,57.1z M30.3,63.1 c0.4,0,0.6,0,0.6-0.2c0.1-0.3-0.2-0.5-0.4-0.6c-0.9-0.4-1.8-0.7-2.7-1.2c-0.3-0.1-0.5,0-0.7,0.2c-0.2,0.3,0,0.5,0.2,0.6 C28.4,62.5,29.4,62.7,30.3,63.1z M67.8,29.8c0-0.3,0-0.5,0-0.8s0-0.7-0.4-0.7S67,28.6,67,28.9c-0.1,1.2-0.1,2.5-0.2,3.7 c0,0.3,0,0.6,0.4,0.6c0.3,0,0.5-0.3,0.4-0.6C67.6,31.7,67.8,30.7,67.8,29.8z M99.4,68.2c0.7-0.2,1.6-0.5,2.5-0.7 c0.2-0.1,0.4-0.2,0.3-0.5s-0.3-0.3-0.5-0.3s-0.5,0-0.7,0.1c-0.6,0.1-1.3,0.3-1.9,0.5c-0.3,0.1-0.6,0.1-0.5,0.5 C98.6,68.2,98.9,68.2,99.4,68.2z M28.4,65.6c0.2,0,0.5,0,0.5-0.3c0-0.2-0.1-0.3-0.4-0.4c-0.6-0.2-1.2-0.3-1.8-0.5 c-0.2-0.1-0.4-0.1-0.5,0.2c0,0.2,0,0.4,0.2,0.5C27.1,65.2,27.7,65.6,28.4,65.6z"></path> <path class="st1" d="M52.4,95.2c-0.1-0.8-0.7-1.4-1-2.1c-0.3-0.8-0.8-1-1.6-1c-2.7,0-5.4,0-8,0C37,92,32.3,92,27.5,92 c-0.4,0-0.8,0-0.7-0.5c0-0.5,0.4-0.4,0.7-0.4c0.7,0,1.3,0,2,0c0.6,0,0.9-0.2,0.9-0.8c0-1.2,0-2.4,0-3.6c0-0.8,0.2-1.1,1-1.2 c0.6-0.1,0.9-0.4,0.9-1.1c-0.1-0.9,0.5-1.4,1.4-1.3c0.8,0.1,1.6,0,2.4,0.1c0.5,0,0.7-0.2,0.7-0.7c-0.1-1.8-0.1-3.6-0.1-5.3 c0-1.1,0.2-1.4,1.2-1.7c0.6-0.2,1-0.6,0.9-1.3c0-0.1,0-0.2,0-0.3c0-1.3,0.5-1.9,1.9-2.1h0.1c1.6-0.1,1.7,0,1.7,1.6 c0,0.7,0.1,0.7,0.7,0.4c1.2-0.6,2.4-1.2,3.5-1.9c0.7-0.4,0.9-0.4,1.5,0.2c0.4,0.4,0.8,0.7,1.4,0.8c0.9,0.2,1.7,0.1,2.6,0.1 c0.9-0.1,1.9-1.4,1.9-2.5c0-0.6,0-1.2-0.2-1.8c-0.2-0.6,0-0.9,0.5-1.2c1-0.5,1.9-1,2.9-1.5c0.5-0.2,0.7-0.6,0.7-1.1 c0-5.7-0.1-11.4-0.1-17.1c0-0.4-0.2-0.7-0.6-0.6c-1.1,0.1-2.2,0-3.3,0c-0.4,0-0.6,0.2-0.7,0.6c-0.1,0.6,0,1.2,0,1.8 c0,5.5,0,11.1,0,16.6c0,1,0.2,2.1,0,3.1c-0.1,0.3,0,0.7-0.5,0.7s-0.6-0.3-0.6-0.6c0-0.8,0-1.5,0-2.3c0-0.6-0.2-0.8-0.7-0.7 c-0.5,0-1.1,0-1.6,0c-0.4,0-0.7,0.2-0.6,0.6c0,0.3,0,0.7,0,1c0,0.2,0,0.3-0.2,0.3s-0.3-0.1-0.4-0.3c0-0.2,0-0.4,0-0.7 c0-2.2,0-4.5,0-6.7c0-0.6-0.2-0.8-0.8-0.8c-0.7,0-1.5,0-2.2,0c-0.5,0-0.7,0.2-0.7,0.8c0.1,1,0.1,2,0.1,3c0,2.6,0,5.2,0,7.8 c0,0.3,0.1,0.8-0.5,0.8c-0.5,0-0.5-0.4-0.5-0.8c0-1.1,0-1.1-1.1-1.1c-1.7,0-3.4,0-5.1,0c-0.3,0-0.7,0-0.8,0.4 c0,0.2-0.2,0.3-0.5,0.3c-0.2-0.1-0.2-0.2-0.2-0.4c0-0.3,0-0.6,0-0.9c-0.1-4.8-0.1-9.5-0.1-14.3c0-0.8,0-0.8-0.8-0.7 c-0.1,0-0.2,0-0.3,0c-0.7-0.1-0.8,0.2-0.8,0.9c0.1,4.5,0.1,9,0.1,13.5c0,0.8,0,1.7,0,2.5c0,0.3,0.1,0.8-0.4,0.8s-0.4-0.5-0.4-0.8 c0-1.6,0-3.2-0.1-4.7c0-0.5-0.1-0.8-0.7-0.8c-1.6-0.2-1.6-0.1-1.6,1.4c0,1.7,0.1,3.3,0.1,5c0,0.5-0.1,0.9-0.7,0.9 s-0.9-0.2-0.9-0.9c0-1.8,0-3.6,0-5.3c0-0.1,0-0.3,0-0.4c0-1,0.4-1.4,1.4-1.5c0.4,0,0.8,0,1.3,0c0.4,0,0.6-0.2,0.6-0.6 c0-2,0.1-4-0.1-6c-0.1-1-0.1-2,0-3c0-0.9,0.9-1.7,1.8-1.7c0.4,0,0.8,0,1.3,0c0.8,0,0.9,0.1,0.9,0.9c0,4.5,0,9,0,13.5 c0,1.3,0,1.1,1.1,1.2c1.4,0.1,2.8,0.1,4.1,0.1c0.9,0,1-0.1,1-1c0-2.4,0-4.7,0-7.1c0-1.2,1.1-2.4,2.3-2.4c0.9,0,1.9,0,2.8,0 c0.6,0,0.8,0.3,0.8,0.8c0,1.6,0,3.2,0,4.7c0,0.6,0.2,0.9,0.9,0.8c0.4,0,0.8,0,1.2,0c0.6,0.1,0.8-0.1,0.8-0.7c0-2.1,0-4.3,0-6.4 c0-3.5,0-7-0.1-10.5c0-0.6,0.2-1,0.8-1.2c0.5-0.2,0.9-0.5,1.4-0.6c0.4-0.1,0.4-0.5,0.5-0.8c0.1-0.4-0.1-0.6-0.4-0.7 c-0.8-0.3-1.4-0.9-1.5-1.8c-0.1-1,0.6-2.2,1.4-2.4c1-0.3,2.3,0.4,2.7,1.5c0.4,1,0,2.1-1,2.6c-0.8,0.4-0.9,0.7-0.4,1.4 c0.1,0.2,0.3,0.3,0.6,0.3c0.7,0.1,1.4,0.3,2.1,0.5c0.5,0.1,0.6,0.3,0.6,0.7c0,2,0.1,4.1,0,6.1c0,3,0,6.1,0.1,9.1 c0,0.8,0,1.6,0,2.4c0,0.5,0.2,0.6,0.6,0.6c1.2,0,2.5,0,3.7,0c0.6,0,0.8-0.2,0.8-0.8c0-3.1,0-6.2,0-9.2c0-0.6,0.1-1.1,0.7-1.3 c1.3-0.4,1.7-1.3,1.6-2.7c-0.1-2.7-0.1-5.4-0.1-8.1c0-0.1,0-0.3,0-0.4c-0.4-1.4,0.3-2.1,1.5-2.7c0.4-0.2,0.5-0.5,0.5-0.9 c0-1.8,0-3.5,0-5.3c0-1,0.7-1.7,1.7-1.7c1.6,0,3.2,0,4.9,0c0.8,0,0.9,0.1,0.9,0.9c0,2,0,3.9,0,5.9c0,1.3,0,1.4,1.3,1.4 c0.5,0,0.6,0.2,0.6,0.6c0,3.9,0,7.8,0,11.7c0,0.6,0.2,0.8,0.8,0.8c1.9,0,1.5-0.1,1.5,1.5c0,1.3,0,2.7,0,4.2c0.8-0.7,1.3-1.4,2-1.9 c0.2-0.2,0.5-0.4,0.7-0.1c0.3,0.3,0.1,0.6-0.2,0.8c-0.5,0.5-1.1,1-1.6,1.5c-0.1,0.1-0.3,0.3-0.5,0.2c-0.7-0.3-0.5,0.1-0.5,0.5 c0,1.1,0,2.2,0,3.4c0,0.5,0.2,0.7,0.7,0.7c0.7,0,1.5,0.1,2.2,0.1c0.8,0,0.9-0.2,0.9-0.9c0-2.6,0-5.3,0-7.9c0-0.6,0.3-0.9,0.8-1.2 c1.2-0.9,2.6-0.6,4-0.6c0.5,0,0.9,0.3,0.9,0.9c0,1.5,0,3,0,4.5c0,0.3-0.1,0.6,0.1,0.9c1.3-0.7,2.6-1.4,3.9-2.2 c2-1.1,4.1-2.3,6.1-3.4c0.3-0.2,0.7-0.2,0.9,0.2c0.2,0.3-0.1,0.5-0.4,0.7c-2.3,1.3-4.7,2.5-7,3.7c-0.9,0.5-1.7,1-2.6,1.4 c-0.1,0-0.2,0.1-0.3,0.1c-1.1-0.4-0.9,0.2-0.9,0.7c0,1.3-0.1,2.5-0.1,3.8c0,0.6,0.2,0.8,0.8,0.8c1.9,0,1.6,0.1,1.6-1.6 c0-0.9,0.6-1.7,1.5-1.8c1.1-0.1,2.3,0,3.4,0c0.6,0,0.8,0.4,0.8,1c0,2.9,0,5.7,0,8.6c0,0.3,0.1,0.7-0.4,0.7S96,72.8,96,72.3 c0-2.6,0-5.2,0-7.8c0-0.8,0-0.9-0.8-0.9c-0.5,0-1.1,0-1.6,0s-0.7,0.2-0.7,0.7c0,1.5,0,3,0,4.5c0,0.5-0.1,0.8-0.7,0.8 s-0.8-0.2-0.8-0.8c0-0.3,0-0.7,0-1c0-0.5-0.2-0.7-0.7-0.7c-0.2,0-0.4,0-0.7,0c-1.1,0-1.1,0-1.2,1.1c0,0.3-0.2,0.5-0.5,0.5 s-0.4-0.3-0.4-0.5c0-1.5,0-3,0.1-4.5c0.1-2.3,0.1-4.7,0-7c0-0.4,0-0.8,0-1.3c0-0.3-0.1-0.5-0.5-0.5c-0.7,0-1.4,0-2,0 c-0.3,0-0.5,0.2-0.5,0.5c0,2.5,0,4.9,0,7.4c0,1.9,0,3.9-0.1,5.8c0,0.1,0,0.2-0.1,0.3c-0.2,0.1-0.3,0-0.3-0.1 c-0.5-0.9-1.4-1.6-1.4-2.7c0-0.3-0.3-0.4-0.5-0.4c-0.9,0-1.8,0-2.6,0c-0.5,0-0.7,0.2-0.6,0.7c0,0.3,0.1,0.6-0.3,0.6 s-0.4-0.4-0.4-0.7c0-3.5,0-6.9,0-10.4c0-1.1,0-1.1-1.1-1.2c-1.1-0.1-1.3-0.3-1.3-1.4c0-2,0.1-4,0-6c-0.1-1.7,0-3.4,0.1-5.1 c0-0.5-0.1-0.8-0.7-0.8c-0.8,0-1-0.2-1-1c0-2.1,0-4.2,0-6.3c0-0.6-0.2-0.7-0.7-0.7c-1.4,0-2.8,0-4.1,0c-0.5,0-0.7,0.2-0.7,0.7 c0.1,1.6,0.1,3.3,0.1,4.9c0,0.5-0.1,1.1-0.1,1.6c0,0.4-0.3,0.5-0.6,0.5c-0.7-0.1-0.8,0.3-0.8,0.9c0,3.6,0,7.2,0,10.8 c0,1-0.5,1.6-1.6,1.6c-0.7,0-0.9,0.2-0.9,0.9c0,1.9,0.1,3.8-0.1,5.7c-0.1,1.2,0,2.5,0,3.7c0,0.5,0.2,0.7,0.7,0.7 c0.4,0,0.8,0,1.3,0c1.2-0.1,2.2,0.1,3.2,0.8c0.8,0.6,1.8,1,2.6,1.5c0.4,0.2,0.6,0.6,0.4,1.1c-0.5,1.6-0.2,2.9,1.1,4 c1.2,1,3.5,1,4.8-0.6c0.3-0.4,0.6-0.5,1-0.2c1.4,0.7,2.8,1.4,4.2,2.2c0.8,0.4,0.9,0.7,0.4,1.6c-0.6,1.1-1.1,2.3-1.7,3.5 c-1.2,2.5-2.5,5.1-3.7,7.6c-0.3,0.7-0.2,0.7,0.7,0.7c0.2,0,0.5,0,0.7,0c0.4,0.1,0.7-0.2,0.8-0.5c0.2-0.5,0.5-0.8,0.6-1.3 c0.3-0.8,0.9-1.1,1.7-1.1c0.5,0,1.1,0,1.6,0s0.7-0.1,0.7-0.6c0.1-2.1,0-4.2,0.1-6.3c0-1.1,0-2.2,0-3.2c0-0.6,0.1-1,0.5-1.5 s0.8-1,0.6-1.8c-0.1-0.4,0.2-0.7,0.6-0.6c1.3,0,2.5,0,3.8,0.1c0.4,0,0.7,0.2,0.7,0.7c0,0.2,0,0.4,0,0.5c0,1,0,1,0.9,1.1 c0.5,0.1,0.4,0.4,0.4,0.7c0,2.8,0,5.6,0,8.4c0,1,0.1,1.1,1.1,1.1c2,0,1.9,0.4,1.8,1.8c0,0.1,0,0.2,0,0.3c0,1.1,0,1.1,1.1,1.1 c0.5,0,0.6,0.2,0.6,0.7c0,1.3,0,2.7,0,4c0,0.6,0.2,0.8,0.7,0.7c0.6,0,1.1-0.1,1.7-0.1c0.2,0,0.4,0,0.6,0.1 c0.3,0.1,0.5,0.3,0.5,0.6c0,0.3-0.3,0.4-0.6,0.4c-1.7,0-3.3,0-5,0c-2,0-4.1-0.1-6.1-0.2c-3.6-0.1-7.3-0.1-10.9-0.1 c-0.7,0-1.4,0-2-0.1c-0.6,0-0.9,0.2-1.1,0.7c-0.6,1.3-1.1,2.6-1.9,3.7c-0.4,0-0.9,0.2-1.2,0.1c0.2-1,1.1-2.3,1.5-3.2 c1-2.2,2.1-4.3,3.1-6.4c1-2,2-4.1,3-6.1s2-4,2.9-5.9c0.2-0.3,0.1-0.5-0.2-0.7c-1-0.5-2-0.9-2.9-1.5c-0.4-0.2-0.6-0.2-0.9,0.1 c-1.3,1.1-2.7,1.3-4.3,1c-0.9-0.2-1.5-0.8-2.3-1.3c0,1-0.8,1.4-1.2,2c-0.3,0.4-0.8,0-1-0.3c-0.3-0.3-0.3-0.7,0.1-1 c0.2-0.1,0.6-0.2,0.5-0.5s-0.4-0.4-0.7-0.5c-0.8-0.1-1-0.4-1-1.2c0-0.4,0.2-0.8,0.5-0.9s0.5,0.3,0.6,0.5c0,0,0,0.1,0.1,0.1 c0.3,0.4,0.6,0.1,0.9,0s0.3-0.4,0.2-0.7c-0.1-0.4-0.3-0.3-0.6-0.2c-0.5,0.1-0.8-0.2-0.7-0.7c0-0.3,0.2-0.6,0.4-0.8 c0.5-0.5,0.4-0.7-0.2-1c-0.5-0.3-1-0.5-1.4-0.8c-0.5-0.3-1-0.4-1.5-0.4c-2.8,0-5.6,0-8.4,0c-1.3,0-2.3,0.3-3.3,1 c-0.3,0.2-0.5,0.4-0.4,0.8s0.4,0.5,0.7,0.5c0.6,0,1.2,0.6,1,1c-0.2,0.5-0.7,1-0.2,1.6l-0.1,0.2c-0.6,1.2-1.3,2.3-2.9,2.3 c0,0-0.1,0-0.1,0.1c-0.3,0.3-0.6,0.1-0.8-0.1c-0.4-0.3-0.8-0.3-1.2-0.1c-0.9,0.4-1.8,0.5-2.7,0.3c-0.3-0.1-0.7-0.2-1-0.4 c-0.2-0.1-0.5-0.3-0.8-0.1c-0.3,0.2,0,0.5,0,0.8c0,0.1,0.1,0.2,0.1,0.2c0.3,0.4,0.3,0.9,0,1.3c-0.2,0.4-0.4,0.7-0.9,0.9 c-0.3,0.1-0.4,0.5-0.5,0.8c-0.1,1-0.4,1.1-1.4,0.8c0.5,0.9,0.7,1.8,1.3,2.5c0.1,0.1,0.3,0.2,0.4,0.1c0.5-0.5,1.1-0.4,1.7-0.3 c0.2,0,0.4-0.1,0.6-0.3c0.2-0.3,0.5-0.5,0.8-0.2s0.5,0.7,0.4,1.1c0,0.3-0.3,0.6-0.7,0.6c-0.5-0.1-0.8,0.2-1,0.6s-0.3,0.7-0.6,1 c-0.2,0.2,0.4,1.5,0.7,1.5c0.1,0,0.2,0,0.2-0.1c0.3-0.5,0.9-0.7,0.9-1.4c0-0.4,0.1-0.9,0.6-0.9s0.6,0.5,0.7,0.9c0,0.2,0,0.3,0,0.5 s-0.3,0.4-0.1,0.5s0.4-0.1,0.5-0.2c0.3-0.2,0.6-0.2,0.9,0.1c0.3,0.2,0.4,0.5,0.2,0.9c-0.1,0.2-0.2,0.5-0.3,0.7s-0.1,0.3,0,0.5 c0.6,0.5,0.4,1.2,0.3,1.9c0,0.4-0.1,0.9-0.6,0.8s-0.9-0.4-0.9-1c0-0.3,0.1-0.6,0.1-0.8c0.1-0.3,0.2-0.5,0.2-0.8 c0-0.2,0-0.4-0.2-0.4c-0.2-0.1-0.3,0.1-0.4,0.3c-0.1,0.4-0.3,0.6-0.6,0.7c-0.4,0.1-0.5,0.4-0.2,0.7c0.4,0.6,0.6,1.2,1,1.9 c0.3,0.5,0.5,0.6,0.9,0.2c0.3-0.2,0.5-0.4,0.9-0.1c0.6,0.4,0.7,1.7,0.1,2.2c-0.3,0.2-0.5,0.4-0.3,0.8c0.4,0,0.4-0.3,0.6-0.6 c0.1-0.3,0.4-0.4,0.7-0.4s0.5,0.2,0.6,0.5c0.3,0.6,0.1,1.3-0.5,1.6c-0.2,0.1-0.4,0.1-0.4,0.3C53.3,95.1,52.8,95.2,52.4,95.2z M93.1,80L93.1,80c0-1.6,0-3.3,0-4.9c0-0.6-0.1-0.8-0.7-0.8c-0.5,0.1-0.7-0.2-0.7-0.7s0-1,0-1.5c0-0.2,0-0.5-0.3-0.5 c-0.7,0-1.5-0.3-2.1,0.1c-0.5,0.3-0.1,1-0.2,1.6v0.1c0,0.4-0.1,0.7-0.6,0.7s-0.6,0.3-0.6,0.7c0,0.7,0,1.3,0,2c0,2.6,0,5.2,0,7.8 c0,0.6-0.1,0.9-0.8,1c-0.9,0.1-1.8,0-2.8,0c-0.6,0-0.7,0.2-0.7,0.7c0,1.5,0,3,0,4.5c0,0.4,0.2,0.6,0.6,0.6c1.5,0,3,0,4.5,0.1 c0.6,0,0.9-0.1,0.8-0.8c0-1.4,0-2.7,0-4.1c0-0.5,0.1-0.8,0.8-0.9c0.7-0.1,1.4-0.1,2-0.1c0.8,0,0.9-0.1,0.9-0.9 C93.1,83.2,93.1,81.6,93.1,80z M38.2,87.6c0,0.9,0,1.8,0,2.8c0,0.5,0.2,0.7,0.7,0.7c0.9,0,1.9,0,2.8,0c0.9,0,0.9,0,0.9-0.9 c0-3.7,0-7.4,0-11.1c0-0.7,0-1.5,0-2.2c0-0.4-0.2-0.8-0.7-0.8s-0.5-0.3-0.5-0.7c0-0.7,0-1.4,0-2.1c0-0.5-0.2-0.8-0.8-0.8 c-0.5,0-0.6,0.4-0.6,0.8c0,0.5,0,1.1,0,1.6c0,1.1,0,1.1-1.1,1.1c-0.6,0-0.8,0.1-0.8,0.8C38.2,80.4,38.1,84,38.2,87.6z M36.7,87.5 L36.7,87.5c0-0.9-0.1-1.9,0-2.8c0-0.5-0.2-0.7-0.7-0.7c-0.6,0-1.2,0-1.8,0s-0.8,0.2-0.8,0.8c0.1,1.9,0.1,3.8,0.1,5.7 c0,0.4,0.2,0.7,0.6,0.7c0.7,0,1.3-0.1,2-0.1c0.5,0,0.6-0.2,0.6-0.7C36.7,89.2,36.7,88.4,36.7,87.5z M46.2,85.2L46.2,85.2 c-0.1-0.6-0.1-1.2-0.1-1.8c0-0.4-0.2-0.7-0.6-0.7c-0.5,0-1.1,0.1-1.6,0.1c-0.3,0-0.4,0.3-0.4,0.5c0,2.4,0,4.9,0.1,7.3 c0,0.4,0.2,0.6,0.6,0.5c0.4-0.1,0.7,0,1.1,0c0.8,0.1,1,0,1-0.9C46.2,88.7,46.2,87,46.2,85.2z M96.2,88.1L96.2,88.1 c0-0.4,0-0.7,0-1.1s0-0.7,0-1.1c0-1.6,0.2-1.4-1.5-1.4c-0.6,0-0.8,0.2-0.8,0.9c0,1.6,0.1,3.1,0,4.7s-0.4,1.7,1.6,1.7 c0.6,0,0.8-0.2,0.8-0.8C96.2,89.9,96.2,89,96.2,88.1z M46.9,88.5c0,0.6,0,1.4,0,2.1c0,0.4,0.2,0.7,0.6,0.7c0.8,0,1.5,0,2.3,0 c0.5,0,0.5-0.2,0.3-0.6c-0.3-0.6-0.6-1.2-0.9-1.7c-0.6-1.2-1.2-2.3-1.8-3.5c-0.1-0.1-0.2-0.4-0.4-0.3c-0.3,0.1-0.2,0.3-0.2,0.5 C46.9,86.6,46.8,87.5,46.9,88.5z M93,89.1C93,89.1,92.9,89.1,93,89.1c0-0.4,0-0.7,0-1.1c0-1.5,0.3-1.4-1.4-1.4 c-0.5,0-0.6,0.2-0.6,0.6c0,1-0.1,1.9-0.1,2.9c0,1.5-0.3,1.5,1.5,1.5h0.1c0.4,0,0.5-0.2,0.5-0.5C92.9,90.4,93,89.8,93,89.1z M81.6,90.5c0-0.4-0.1-0.7-0.1-1.1c0-0.6-0.3-0.8-0.9-0.8c-1.6,0-1.8,0.1-1.5,1.8c0,0,0,0,0,0.1c0.2,1.2,0.2,1.2,1.3,1.2 C81.6,91.6,81.6,91.6,81.6,90.5z M53.1,42.4c0,0.9,0.6,1.6,1.5,1.6s1.6-0.7,1.6-1.6c0-0.7-0.8-1.5-1.6-1.5S53.1,41.6,53.1,42.4z M43.6,78.4c-0.1,0-0.1,0.1-0.2,0.1c0,1,0,2,0,3.1c0,0.3,0.1,0.5,0.4,0.5c0.4,0,0.8,0,1.2,0c0.2,0,0.3-0.2,0.2-0.4 C44.8,80.6,44.2,79.5,43.6,78.4z M46.5,75.5c0-0.4,0-0.8-0.3-1C46,74.3,46,74.2,46,73.9c0-0.1,0-0.3-0.1-0.3s-0.2,0.1-0.3,0.2 s-0.1,0.3,0,0.4c0.4,0.7,0.1,1.7-0.6,2c-0.4,0.2-0.5,0.4-0.4,0.8s0.3,0.7,0.5,1c0.1,0.1,0.1,0.3,0.3,0.3c0.2-0.1,0.1-0.3,0.1-0.4 c-0.2-0.7,0.1-1.2,0.7-1.5C46.3,76.1,46.6,75.9,46.5,75.5z M97.6,89.6L97.6,89.6c0-0.5,0-1.1,0-1.6c0-0.2-0.1-0.4-0.4-0.4 c-0.2,0-0.3,0.1-0.3,0.3c0,1.1,0,2.1,0.1,3.2c0,0.2,0.1,0.4,0.3,0.4c0.3,0,0.3-0.2,0.3-0.5C97.6,90.6,97.6,90.1,97.6,89.6z"></path> <path class="st1" d="M71.8,102.5c-0.2,0.9-0.7,1.7-1.1,2.6c-1,2.1-2.1,4.2-3.1,6.3c-1,2.1-2,4.1-3.1,6.2c-0.1,0.2-0.2,0.5-0.5,0.5 c-0.3,0-0.3-0.3-0.4-0.5c-1-2-2.1-4-3.1-6c-1.2-2.2-2.4-4.4-3.6-6.7c-0.5-0.8-1-1.6-1.3-2.6c0.3-0.3,0.5-0.5,0.9-0.1 c0.1,0.1,0.2,0.1,0.4,0c0.3-0.1,0.6-0.2,0.9-0.2c0.6,0,1.2,0.3,1.8,0.1c0,0.3,0.1,0.4,0.4,0.5c0.3,0.1,0.4,0.3,0.4,0.7 c-0.1,0.3-0.3,0.5-0.6,0.5c-0.4,0-0.7,0.2-1,0.4c-0.2,0.2-0.5,0.4-0.3,0.7c0.1,0.3,0.2,0.8,0.6,0.9c0.4,0.1,0.4-0.3,0.6-0.6 c0.3-0.5,0.5-0.5,0.8-0.1c0.2,0.3,0.5,0.4,0.8,0.5c0.5,0,0.7,0.4,0.5,0.8c-0.1,0.3-0.1,0.7-0.5,0.8c-0.4,0.1-0.8-0.1-1-0.4 c-0.1-0.1-0.1-0.3-0.3-0.2c-0.1,0.1-0.1,0.2-0.1,0.4c0,1.2,0.7,2.2,1.1,3.2c0.1,0.2,0.3,0.4,0.6,0.4c1,0.1,1.2,0.5,0.8,1.4 c-0.1,0.3-0.2,0.5,0,0.9c0.4,0.9,1.1,1.5,1.3,2.5c0.1,0.4,0.4,0.4,0.6,0.1c0.3-0.3,0.4-0.8,0.5-1.2c1-2.1,2-4.1,3-6.2 c0.8-1.7,1.9-4,2.7-5.7"></path> <path class="st1" d="M36.5,40.5c0.3,0.1,0.6,0.3,0.9,0.6c1.3,1.6,2.7,3.3,4,4.9c1.6,2,3.2,3.9,4.8,5.9c1.2,1.5,2.5,3,3.7,4.5 c0.2,0.3,0.5,0.6,0.1,0.9c-0.3,0.3-0.6,0-0.9-0.2c-1.1-1.3-2.2-2.6-3.3-4c-2.1-2.6-4.2-5.1-6.4-7.7c-1.1-1.3-2.1-2.6-3.2-3.9 c-0.2-0.2-0.3-0.4-0.2-0.7C36.1,40.6,36.3,40.5,36.5,40.5z"></path> <path class="st1" d="M61,54.4c0,0.1,0,0.2,0,0.3c0,0.2,0,0.5-0.3,0.5s-0.4-0.2-0.4-0.4c-0.2-0.9-0.4-1.8-0.5-2.7 c-0.3-2.1-0.6-4.2-1-6.2c-0.2-1.4-0.4-2.7-0.6-4.1c-0.3-1.8-0.5-3.6-0.9-5.4c-0.3-1.5-0.7-3.1-0.8-4.6c-0.1-0.7-0.3-1.3-0.4-1.9 C56,29.4,56,29,56.5,28.9s0.6,0.4,0.6,0.7c0.3,1.8,0.5,3.5,0.8,5.3c0.3,2.1,0.7,4.2,1,6.2c0.3,1.9,0.7,3.8,1,5.7 c0.2,1.8,0.6,3.5,0.8,5.3C60.7,52.9,61,53.6,61,54.4z"></path> <path class="st1" d="M63.3,36.7c0,3.6,0.2,6.8,0.4,10c0,0.5,0.1,1-0.1,1.5c-0.1,0.2-0.2,0.4-0.4,0.4s-0.3-0.2-0.4-0.4 c-0.1-0.2-0.2-0.4-0.2-0.7c0-1.8,0-3.6-0.1-5.4c-0.2-3.2-0.2-6.4-0.3-9.6c0-0.8-0.1-1.7-0.1-2.5c0-0.4,0.1-0.8,0.5-0.8 c0.5,0,0.5,0.4,0.5,0.8C63.1,32.4,63.3,34.8,63.3,36.7z"></path> <path class="st1" d="M82,54.4c-0.4,0-0.6-0.4-0.4-0.8c0.2-0.3,0.4-0.7,0.7-1c2.9-3.4,5.9-6.8,8.8-10.3c0.1-0.1,0.3-0.3,0.4-0.4 c0.3-0.2,0.5-0.5,0.8-0.1c0.3,0.3,0.2,0.7-0.1,0.9c-0.7,0.8-1.4,1.6-2.1,2.4C87.6,48,85,51,82.5,53.9C82.4,54.2,82.2,54.4,82,54.4 z"></path> <path class="st1" d="M85.9,36.2c-0.1,0.8-0.7,1.4-1,2c-0.9,1.8-1.9,3.6-3,5.4c-0.8,1.4-1.6,2.9-2.4,4.3c-0.2,0.4-0.4,0.8-0.6,1.1 s-0.4,0.6-0.8,0.3c-0.3-0.2-0.3-0.5-0.1-0.9c1.9-3.4,3.7-6.8,5.6-10.2c0.3-0.5,0.5-1.1,0.8-1.6c0.2-0.3,0.4-0.6,0.7-0.9 c0.2-0.2,0.3-0.2,0.5-0.1C85.9,35.8,85.9,36,85.9,36.2z"></path> <path class="st1" d="M45.9,55.8c0,0.4-0.2,0.5-0.5,0.3s-0.6-0.5-0.9-0.7c-2-1.9-4-3.8-6-5.6c-1.7-1.6-3.3-3.1-5-4.7 c-0.1-0.1-0.2-0.2-0.3-0.3c-0.2-0.2-0.1-0.4,0-0.6c0.2-0.2,0.4-0.2,0.6,0c0.1,0.1,0.3,0.2,0.4,0.4c3.7,3.5,7.4,7,11.1,10.5 C45.7,55.2,45.9,55.4,45.9,55.8z"></path> <path class="st1" d="M50.9,50.6c0,0.2-0.1,0.3-0.2,0.3c-0.2,0.1-0.4,0-0.5-0.2c-0.4-0.6-0.8-1.2-1.1-1.8C47.5,46,45.9,43,44.3,40 c-0.4-0.7-0.7-1.3-1.1-2c-0.2-0.1-0.2-0.4,0.1-0.6s0.5,0.1,0.6,0.3c0.4,0.7,0.8,1.4,1.2,2.1c1.5,2.7,3,5.4,4.5,8.1 c0.4,0.8,0.9,1.5,1.3,2.3C50.8,50.4,50.9,50.5,50.9,50.6z"></path> <path class="st1" d="M94.9,46.3c0,0.3-0.2,0.4-0.4,0.6c-2,1.9-4,3.9-6,5.8l-0.1,0.1c-0.3,0.2-0.6,0.6-1,0.2c-0.3-0.4,0-0.7,0.2-1 c1.2-1.1,2.4-2.2,3.6-3.4c0.8-0.8,1.7-1.6,2.5-2.4c0.2-0.2,0.4-0.3,0.6-0.4C94.6,45.6,94.9,45.9,94.9,46.3z"></path> <path class="st1" d="M80.8,31.8c-0.1,0.2-0.1,0.6-0.3,0.9c-0.6,1.4-1.2,2.9-1.7,4.3c-0.2,0.7-0.7,1.3-0.8,2.1 c0,0.1-0.1,0.2-0.1,0.3c-0.2,0.3-0.4,0.5-0.8,0.3c-0.3-0.2-0.3-0.5-0.2-0.8c0.4-0.9,0.8-1.8,1.1-2.7c0.5-1.4,1-2.7,1.6-4 c0.1-0.2,0.2-0.5,0.4-0.7c0.1-0.2,0.3-0.3,0.5-0.2C80.7,31.3,80.8,31.5,80.8,31.8z"></path> <path class="st1" d="M53.9,39.2c0,0.2,0,0.4-0.3,0.5c-0.2,0.1-0.4-0.1-0.5-0.3c-0.2-0.4-0.4-0.9-0.5-1.3c-0.6-2.2-1.2-4.5-2-6.7 c0-0.1,0-0.2,0-0.3c0-0.3-0.1-0.7,0.3-0.7c0.4-0.1,0.6,0.2,0.7,0.6c0.4,1.4,0.8,2.7,1.2,4.1c0.3,1.1,0.5,2.2,1,3.2 C53.8,38.5,53.8,38.9,53.9,39.2z"></path> <path class="st1" d="M47.2,35.6c0.3,0,0.5,0.2,0.6,0.5c0.5,1.2,1.1,2.5,1.6,3.7s1.1,2.5,1.6,3.7c0.1,0.2,0.1,0.4,0.2,0.5 c0.2,0.4,0.1,0.7-0.3,0.8c-0.4,0.2-0.5-0.3-0.6-0.5c-1.1-2.4-2.1-4.8-3.2-7.2c-0.1-0.3-0.3-0.6-0.4-1 C46.8,35.9,46.8,35.7,47.2,35.6z"></path> <path class="st1" d="M79.7,51.8c-0.4,0-0.6-0.5-0.3-0.9c0.6-0.9,1.2-1.7,1.9-2.5c0.8-1.1,1.6-2.1,2.4-3.2c0.1-0.1,0.1-0.1,0.1-0.2 c0.2-0.2,0.5-0.5,0.8-0.3c0.4,0.2,0.2,0.5,0.1,0.8c-0.3,0.5-0.7,1-1.1,1.5c-1,1.4-2.1,2.8-3.1,4.2C80.3,51.5,80,51.7,79.7,51.8z"></path> <path class="st1" d="M46,47.1c0.2,0.1,0.4,0.3,0.5,0.5c0.9,1.5,1.8,3,2.8,4.4c0.3,0.5,0.7,1.1,1,1.6c0.1,0.2,0.2,0.4,0.3,0.6 c0.1,0.3,0,0.5-0.2,0.7c-0.3,0.2-0.4-0.1-0.6-0.3c-0.6-1-1.3-2-1.9-3c-0.8-1.2-1.5-2.5-2.3-3.7c-0.1-0.2-0.2-0.3-0.1-0.5 C45.7,47.1,45.9,47.1,46,47.1z"></path> <path class="st1" d="M44.1,58.5c0,0.1,0,0.2-0.1,0.2c-0.2,0.1-0.4,0-0.6-0.1c-0.7-0.5-1.3-1.1-2-1.6c-1.6-1.3-3.1-2.5-4.7-3.8 c-0.2-0.2-0.4-0.3-0.6-0.5c-0.1-0.1-0.4-0.3-0.1-0.6c0.2-0.2,0.5-0.1,0.7,0.1c0.9,0.7,1.7,1.4,2.6,2.1c1.4,1.2,2.9,2.3,4.4,3.5 C43.9,58,44,58.2,44.1,58.5z"></path> <path class="st1" d="M94.4,55.2c0,0.3-0.1,0.5-0.4,0.6c-1,0.7-2,1.3-3.1,2c-0.2,0.1-0.4,0.2-0.5,0.2c-0.3,0.1-0.5,0-0.7-0.2 c-0.1-0.2-0.1-0.5,0.2-0.6c1.2-0.8,2.5-1.6,3.7-2.4C94,54.5,94.4,54.7,94.4,55.2z"></path> <path class="st1" d="M27.9,50.1c0.4,0.3,0.8,0.6,1.2,0.9c1,0.7,1.9,1.5,2.8,2.2c0.3,0.2,0.4,0.5,0.2,0.8c-0.2,0.4-0.5,0.2-0.7,0 c-1.3-1-2.6-2.1-3.9-3.1c-0.1-0.1-0.3-0.3-0.2-0.5C27.5,50.2,27.7,50.1,27.9,50.1z"></path> <path class="st1" d="M95.5,62.4c-0.2,0-0.5-0.1-0.5-0.4c0-0.2,0.1-0.4,0.3-0.4c2-0.8,4-1.6,6.1-2.3c0.2-0.1,0.5-0.2,0.6,0.1 c0.2,0.3-0.1,0.5-0.3,0.6c-0.7,0.3-1.4,0.6-2.1,0.9c-1.2,0.5-2.4,0.9-3.7,1.4C95.8,62.4,95.6,62.4,95.5,62.4z"></path> <path class="st1" d="M42.4,61.6c0,0.3-0.2,0.4-0.5,0.2c-0.5-0.4-1.1-0.8-1.6-1.2c-0.9-0.7-2-1.3-2.9-2.1c-0.1-0.1-0.2-0.2-0.3-0.3 c-0.2-0.2-0.3-0.3-0.1-0.6c0.2-0.2,0.4-0.2,0.6,0c0.8,0.6,1.6,1.3,2.4,1.9c0.6,0.5,1.3,0.9,1.9,1.4C42.2,61.1,42.4,61.2,42.4,61.6 z"></path> <path class="st1" d="M98.1,65.6c-0.3,0-0.4-0.1-0.5-0.3c-0.1-0.3,0.1-0.4,0.3-0.5c1.3-0.4,2.6-0.7,3.9-1c0.3-0.1,0.7-0.1,0.8,0.3 c0.1,0.4-0.3,0.4-0.6,0.5C100.7,64.9,99.4,65.2,98.1,65.6z"></path> <path class="st1" d="M27.1,57.1c0.6,0.2,1.3,0.4,1.9,0.8c0.7,0.4,1.4,0.6,2.1,0.9c0.3,0.1,0.5,0.3,0.4,0.6s-0.3,0.3-0.5,0.2 c-1.4-0.5-2.8-1.1-4-1.8c-0.2-0.1-0.4-0.3-0.3-0.5C26.7,57.1,26.9,57.1,27.1,57.1z"></path> <path class="st1" d="M30.3,63.1c-0.9-0.3-2-0.6-2.9-1.1c-0.2-0.1-0.4-0.3-0.2-0.6c0.1-0.2,0.4-0.4,0.7-0.2 c0.9,0.4,1.8,0.8,2.7,1.2c0.2,0.1,0.5,0.3,0.4,0.6C30.9,63.1,30.7,63.1,30.3,63.1z"></path> <path class="st1" d="M67.8,29.8c0,1-0.2,1.9-0.2,2.9c0,0.3-0.1,0.6-0.4,0.6c-0.4,0-0.4-0.3-0.4-0.6c0-1.2,0.1-2.5,0.2-3.7 c0-0.3,0.1-0.6,0.4-0.6c0.4,0,0.4,0.4,0.4,0.7C67.8,29.3,67.8,29.5,67.8,29.8z"></path> <path class="st1" d="M99.4,68.2c-0.5,0-0.8,0-0.9-0.4s0.3-0.4,0.5-0.5c0.6-0.2,1.2-0.4,1.9-0.5c0.2-0.1,0.5-0.1,0.7-0.1 s0.5,0,0.5,0.3c0.1,0.3-0.1,0.4-0.3,0.5C101,67.9,100.1,68.1,99.4,68.2z"></path> <path class="st1" d="M28.4,65.6c-0.7,0-1.3-0.3-2-0.5c-0.2-0.1-0.3-0.3-0.2-0.5c0.1-0.3,0.3-0.2,0.5-0.2c0.6,0.2,1.2,0.3,1.8,0.5 c0.2,0.1,0.4,0.1,0.4,0.4C28.9,65.6,28.7,65.6,28.4,65.6z"></path> <path class="st1" d="M61.5,109.5c0.6,0,1-0.4,1-1c0-0.4-0.1-0.8-0.6-0.8c-0.4-0.1-1,0.6-1,1.2C60.9,109.2,61.2,109.5,61.5,109.5z"></path> <path class="st1" d="M47,78.8c0,0,0-0.1,0-0.2c0.5-0.4,0.5-1,0.8-1.5c0.4-0.7,0.8-0.7,1.3-0.1c0.6,0.6,0.6,0.8,0,1.4 c-0.2,0.3-0.4,0.5-0.3,0.9c0.1,0.2,0,0.4,0,0.7c0,0.3-0.2,0.5-0.5,0.6s-0.5-0.1-0.6-0.2C47.4,79.9,47,79.5,47,78.8z"></path> <path class="st1" d="M54.6,89.8c0,0.3,0,0.7-0.4,0.7c-0.3,0-0.7-0.6-0.7-1c0-0.3,0.2-0.7,0.6-0.6C54.5,88.9,54.5,89.4,54.6,89.8z"></path> <path class="st1" d="M50.6,79.4c0,0.2-0.1,0.5-0.4,0.4c-0.4,0-0.5-0.4-0.6-0.7c0-0.3,0.1-0.6,0.4-0.6 C50.4,78.4,50.6,78.8,50.6,79.4z"></path> <path class="st1" d="M61.5,109.5c-0.3,0-0.6-0.2-0.6-0.7s0.6-1.2,1-1.2c0.5,0.1,0.6,0.4,0.6,0.8C62.5,109.1,62.1,109.5,61.5,109.5 z"></path> </g> <path class="st1" d="M64.2,128.8l-4.2-5.2l-4.8,4.6l-3.4-5.7l-5.4,3.9l-2.5-6.1l-5.9,3.1l-1.6-6.4l-6.3,2.2l-0.7-6.6l-6.5,1.3 l0.2-6.6l-6.6,0.4l1.1-6.6l-6.6-0.5l2-6.3l-6.5-1.4l2.9-6l-6.2-2.3l3.7-5.5l-5.8-3.2l4.4-5l-5.5-4l5.1-4.3L0.3,58l5.6-3.6l-4.1-5.3 l6.1-2.7l-3.3-5.8l6.4-1.9l-2.5-6.2l6.6-1l-1.6-6.5h6.6l-0.7-6.6l6.6,0.9l0.3-6.6l6.4,1.8L34,8l6.1,2.7l2.1-6.3l5.7,3.5l3-6L56,6.1 l3.7-5.5l4.5,4.9l4.4-4.9l3.8,5.5l5.1-4.2l3,6l5.7-3.5l2.1,6.3L94.4,8l1.2,6.5l6.4-1.8l0.3,6.6l6.6-0.9l-0.7,6.6h6.6l-1.6,6.5 l6.6,1l-2.5,6.2l6.4,1.9l-3.3,5.8l6.1,2.7l-4.1,5.3L128,58l-4.8,4.6l5.1,4.3l-5.4,3.9l4.4,5l-5.8,3.2l3.7,5.5l-6.2,2.3l2.9,6 l-6.5,1.4l2,6.3l-6.6,0.5l1.1,6.6l-6.6-0.4l0.2,6.6l-6.5-1.3l-0.7,6.6l-6.3-2.2l-1.6,6.4l-5.9-3.1l-2.5,6.1l-5.4-3.9l-3.4,5.7 l-4.8-4.6L64.2,128.8z M60.1,122.4l4,5.1l4-5.1l4.7,4.5l3.3-5.6l5.3,3.8l2.5-6l5.8,3l1.6-6.3l6.1,2.2l0.7-6.5l6.4,1.3l-0.2-6.5 l6.5,0.4l-1.1-6.4l6.5-0.5l-2-6.2l6.4-1.4l-2.8-5.9l6.1-2.3l-3.6-5.4l5.7-3l-4.3-4.9l5.2-3.9l-5-4.2l4.7-4.5l-5.5-3.5l4-5.2 l-5.9-2.7l3.2-5.7l-6.2-1.8l2.4-6l-6.4-0.9l1.5-6.3h-6.5l0.6-6.5l-6.4,0.9l-0.3-6.5l-6.3,1.7l-1.2-6.4l-6,2.6l-2-6.2L80.1,9 l-2.9-5.8l-5,4.2L68.5,2l-4.4,4.8L59.7,2L56,7.4l-5-4.2L48.1,9l-5.4-3.4l-2,6.2l-6-2.6l-1.2,6.4l-6.3-1.8L27,20.3l-6.4-0.9l0.6,6.5 h-6.5l1.5,6.3l-6.4,0.9l2.4,6L6,40.9l3.2,5.7l-5.9,2.7l4,5.2L1.8,58l4.5,4.6l-5,4.2l5.2,3.9l-4.2,4.9l5.7,3L4.4,84l6.1,2.3 l-2.8,5.9l6.3,1.4l-2,6.2l6.5,0.5l-1.1,6.4l6.5-0.4l-0.2,6.5l6.4-1.3l0.7,6.5l6.1-2.2l1.6,6.3l5.8-3l2.5,6l5.3-3.8l3.3,5.6 L60.1,122.4z"></path> <g> <path class="st2" d="M21,61.2l0.6-1.5c0.8,0.3,1.5,0.7,1.8,1.3c0.4,0.6,0.6,1.3,0.5,2.1c-0.1,1-0.5,1.9-1.2,2.5 c-0.7,0.6-1.7,0.9-3,0.8s-2.3-0.5-3-1.2c-0.7-0.7-1-1.6-0.9-2.7c0.1-1,0.4-1.7,1-2.3c0.4-0.3,0.8-0.6,1.5-0.7l0.3,1.6 c-0.4,0.1-0.7,0.2-1,0.5c-0.2,0.3-0.4,0.6-0.4,1c0,0.6,0.2,1.1,0.5,1.4c0.4,0.4,1.1,0.6,2,0.6c1,0.1,1.7-0.1,2.1-0.4 c0.4-0.3,0.7-0.8,0.7-1.4c0-0.4-0.1-0.8-0.3-1.1C22,61.6,21.6,61.3,21,61.2z"></path> <path class="st2" d="M24.2,58.7l-7.7-1.4l0.3-1.6l7.7,1.4L24.2,58.7z"></path> <path class="st2" d="M25.2,54.2L19,52.3l-0.7,2.2L17,54.1l1.8-5.9l1.3,0.4l-0.7,2.2l6.2,1.9L25.2,54.2z"></path> <path class="st2" d="M27.6,48l-2.9-1.5L19.4,47l0.8-1.7l3.6-0.3l-2-3l0.8-1.6l2.8,4.6l2.9,1.5L27.6,48z"></path> <path class="st2" d="M28.2,39.1c-0.6-0.5-1-1.1-1.3-1.6c-0.2-0.4-0.3-0.8-0.3-1.3c0-0.4,0-0.8,0.1-1.2c0.2-0.5,0.5-1,0.9-1.5 c0.8-0.9,1.6-1.3,2.6-1.4c1-0.1,2,0.3,2.9,1.2c1,0.8,1.5,1.7,1.6,2.7s-0.2,1.9-1,2.8c-0.8,0.9-1.6,1.3-2.6,1.4 C30.1,40.3,29.2,39.9,28.2,39.1z M29.3,37.8c0.7,0.6,1.3,0.9,1.9,0.9s1.1-0.3,1.5-0.7c0.4-0.5,0.6-1,0.5-1.6s-0.5-1.2-1.1-1.8 c-0.7-0.6-1.3-0.9-1.9-0.9s-1.1,0.3-1.5,0.7c-0.4,0.5-0.6,1-0.5,1.6C28.2,36.7,28.6,37.3,29.3,37.8z"></path> <path class="st2" d="M36.9,35.4L32,29.3l4.2-3.4l0.8,1l-3,2.4l1.2,1.4l2.5-2l0.8,1l-2.5,2l2.1,2.6L36.9,35.4z"></path> <path class="st2" d="M44.4,29.9l-3.4-7l4.8-2.3l0.6,1.2L43,23.4l0.8,1.7l2.9-1.4l0.6,1.2l-2.9,1.4l1.4,3L44.4,29.9z"></path> <path class="st2" d="M50.3,27.3l-2.2-7.4l1.5-0.4l1.8,6.2l3.8-1.1l0.4,1.3L50.3,27.3z"></path> <path class="st2" d="M56.4,25.6l-1.3-7.7l1.6-0.3l1.3,7.7L56.4,25.6z"></path> <path class="st2" d="M59.2,25.1l-0.4-7.8l1.5-0.1l3.5,5L63.5,17l1.5-0.1l0.4,7.8l-1.6,0.1l-3.4-4.9l0.3,5.1L59.2,25.1z"></path> <path class="st2" d="M68.5,25.1l0.8-6.4L67,18.4l0.2-1.3l6.2,0.8l-0.2,1.3l-2.3-0.3l-0.8,6.4L68.5,25.1z"></path> <path class="st2" d="M72.3,24.2l1.5,0.3l-0.2,1c-0.1,0.4-0.2,0.8-0.3,1c-0.1,0.2-0.3,0.4-0.6,0.6c-0.2,0.2-0.5,0.2-0.9,0.3 l-0.2-0.7c0.3,0,0.6-0.1,0.7-0.3c0.2-0.1,0.3-0.4,0.3-0.7L72,25.6L72.3,24.2z"></path> <path class="st2" d="M77.5,27l3.3-7.1l2.1,1L82,26.3l3.5-4.3l2.2,1l-3.3,7.1l-1.3-0.6l2.6-5.6l-4,5l-1.4-0.6l1.2-6.2l-2.6,5.5 L77.5,27z"></path> <path class="st2" d="M85.4,30.9l4.2-6.6l1.3,0.9l-4.2,6.6L85.4,30.9z"></path> <path class="st2" d="M93.5,33.4l0.9,1.4c-0.7,0.5-1.4,0.7-2.1,0.7s-1.3-0.3-2-0.9c-0.8-0.7-1.2-1.5-1.3-2.5 c-0.1-1,0.3-1.9,1.1-2.9c0.8-1,1.7-1.6,2.7-1.7s1.9,0.2,2.7,0.9c0.7,0.6,1.1,1.3,1.2,2.2c0.1,0.5-0.1,1-0.3,1.6l-1.3-0.6 c0.2-0.4,0.3-0.7,0.2-1.1c-0.1-0.4-0.3-0.7-0.6-1c-0.4-0.4-0.9-0.5-1.5-0.4c-0.5,0.1-1.1,0.5-1.7,1.2c-0.6,0.8-1,1.4-1,2 c0,0.6,0.2,1,0.7,1.4c0.3,0.3,0.7,0.4,1.1,0.4C92.6,34,93.1,33.8,93.5,33.4z"></path> <path class="st2" d="M93.6,37.4l6.1-4.9l1,1.2l-2.5,1.9l2,2.4l2.4-1.9l1,1.2l-6.1,4.9l-1-1.2l2.7-2.2l-2-2.4l-2.6,2.2L93.6,37.4z"></path> <path class="st2" d="M98.2,43.4l6.6-4.1l0.8,1.3L99,44.7L98.2,43.4z"></path> <path class="st2" d="M103.9,47.9l1.2-0.5l1.4,3.1l-2.8,1.3c-0.4-0.2-0.9-0.5-1.4-1s-0.8-1-1.1-1.6c-0.3-0.7-0.5-1.5-0.4-2.2 s0.3-1.3,0.8-1.9c0.5-0.5,1-1,1.7-1.3s1.5-0.5,2.2-0.4s1.4,0.3,1.9,0.8c0.4,0.4,0.8,0.9,1.1,1.6c0.4,0.9,0.5,1.7,0.4,2.3 c-0.2,0.7-0.5,1.2-1.1,1.6l-0.9-1.3c0.3-0.3,0.5-0.6,0.6-0.9c0.1-0.4,0-0.8-0.2-1.2c-0.3-0.6-0.7-1-1.3-1.2 c-0.6-0.2-1.2-0.1-2,0.2c-0.8,0.4-1.4,0.8-1.7,1.4c-0.3,0.6-0.2,1.2,0,1.8c0.1,0.3,0.3,0.6,0.6,0.8c0.3,0.3,0.5,0.4,0.8,0.6 l0.9-0.4L103.9,47.9z"></path> <path class="st2" d="M104.5,60.2l-0.4-1.7l1.6-1.1l-0.7-3l-1.9-0.2l-0.4-1.6l8.3,1.2l0.4,1.6L104.5,60.2z M106.9,56.6l2.6-1.7 l-3.1-0.4L106.9,56.6z"></path> <path class="st2" d="M104.5,60.7l7.8-0.2V62l-5.1,3.3l5.2-0.1v1.5l-7.8,0.2v-1.6l5-3.3l-5.1,0.1V60.7z"></path> </g> <g> <ellipse transform="matrix(0.9991 -4.256403e-02 4.256403e-02 0.9991 -4.9908 2.4995)" class="st2" cx="56.2" cy="118.4" rx="3.6" ry="3.7"></ellipse> <ellipse transform="matrix(0.9991 -4.256403e-02 4.256403e-02 0.9991 -4.925 2.1872)" class="st2" cx="48.9" cy="116.8" rx="3.6" ry="3.7"></ellipse> <ellipse transform="matrix(0.9991 -4.256403e-02 4.256403e-02 0.9991 -4.8164 1.891)" class="st2" cx="42" cy="114.1" rx="3.6" ry="3.7"></ellipse> <ellipse transform="matrix(0.9991 -4.256162e-02 4.256162e-02 0.9991 -4.6729 1.6155)" class="st2" cx="35.6" cy="110.6" rx="3.6" ry="3.7"></ellipse> <ellipse transform="matrix(0.9991 -4.256162e-02 4.256162e-02 0.9991 -4.4869 1.3601)" class="st2" cx="29.7" cy="106.1" rx="3.6" ry="3.7"></ellipse> <ellipse transform="matrix(0.9991 -4.256403e-02 4.256403e-02 0.9991 -4.2747 1.1344)" class="st2" cx="24.5" cy="101" rx="3.6" ry="3.7"></ellipse> <ellipse transform="matrix(0.9991 -4.256403e-02 4.256403e-02 0.9991 -4.0274 0.9417)" class="st2" cx="20.1" cy="95" rx="3.6" ry="3.7"></ellipse> <ellipse transform="matrix(0.9991 -4.256403e-02 4.256403e-02 0.9991 -3.7542 0.7782)" class="st2" cx="16.4" cy="88.5" rx="3.6" ry="3.7"></ellipse> <ellipse transform="matrix(0.9991 -4.256403e-02 4.256403e-02 0.9991 -3.4587 0.6527)" class="st2" cx="13.6" cy="81.5" rx="3.6" ry="3.7"></ellipse> <ellipse transform="matrix(0.9991 -4.256403e-02 4.256403e-02 0.9991 -3.1456 0.5653)" class="st2" cx="11.7" cy="74.2" rx="3.6" ry="3.7"></ellipse> <ellipse transform="matrix(0.9991 -4.256463e-02 4.256463e-02 0.9991 -2.8101 0.524)" class="st2" cx="10.9" cy="66.3" rx="3.6" ry="3.7"></ellipse> <ellipse transform="matrix(0.9991 -4.256343e-02 4.256343e-02 0.9991 -2.4777 0.5297)" class="st2" cx="11.2" cy="58.5" rx="3.6" ry="3.7"></ellipse> <ellipse transform="matrix(0.9991 -4.256403e-02 4.256403e-02 0.9991 -2.1529 0.5823)" class="st2" cx="12.6" cy="50.8" rx="3.6" ry="3.7"></ellipse> <ellipse transform="matrix(0.9991 -4.256403e-02 4.256403e-02 0.9991 -1.8487 0.6739)" class="st2" cx="14.9" cy="43.7" rx="3.6" ry="3.7"></ellipse> <ellipse transform="matrix(0.9991 -4.256403e-02 4.256403e-02 0.9991 -1.5606 0.8039)" class="st2" cx="18.1" cy="37.1" rx="3.6" ry="3.7"></ellipse> <ellipse transform="matrix(0.9991 -4.256403e-02 4.256403e-02 0.9991 -1.2972 0.973)" class="st2" cx="22.2" cy="30.9" rx="3.6" ry="3.7"></ellipse> <ellipse transform="matrix(0.9991 -4.256403e-02 4.256403e-02 0.9991 -1.0588 1.1723)" class="st2" cx="27" cy="25.5" rx="3.6" ry="3.7"></ellipse> <ellipse transform="matrix(0.9991 -4.256162e-02 4.256162e-02 0.9991 -0.8495 1.4019)" class="st2" cx="32.5" cy="20.7" rx="3.6" ry="3.7"></ellipse> <ellipse transform="matrix(0.9991 -4.256403e-02 4.256403e-02 0.9991 -0.6738 1.658)" class="st2" cx="38.6" cy="16.7" rx="3.6" ry="3.7"></ellipse> <ellipse transform="matrix(0.9991 -4.256403e-02 4.256403e-02 0.9991 -0.5357 1.9404)" class="st2" cx="45.3" cy="13.6" rx="3.6" ry="3.7"></ellipse> <ellipse transform="matrix(0.9991 -4.256403e-02 4.256403e-02 0.9991 -0.4355 2.2449)" class="st2" cx="52.5" cy="11.3" rx="3.6" ry="3.7"></ellipse> <ellipse transform="matrix(0.9991 -4.256403e-02 4.256403e-02 0.9991 -0.3819 2.5632)" class="st2" cx="60" cy="10.3" rx="3.6" ry="3.7"></ellipse> <ellipse transform="matrix(0.9991 -4.256403e-02 4.256403e-02 0.9991 -0.375 2.891)" class="st2" cx="67.7" cy="10.3" rx="3.6" ry="3.7"></ellipse> <ellipse transform="matrix(0.9991 -4.256403e-02 4.256403e-02 0.9991 -0.4107 3.211)" class="st2" cx="75.2" cy="11.3" rx="3.6" ry="3.7"></ellipse> <ellipse transform="matrix(0.9991 -4.256403e-02 4.256403e-02 0.9991 -0.4937 3.5151)" class="st2" cx="82.3" cy="13.4" rx="3.6" ry="3.7"></ellipse> <ellipse transform="matrix(0.9991 -4.256403e-02 4.256403e-02 0.9991 -0.6195 3.8032)" class="st2" cx="89" cy="16.4" rx="3.6" ry="3.7"></ellipse> <ellipse transform="matrix(0.9991 -4.256403e-02 4.256403e-02 0.9991 -0.7798 4.0706)" class="st2" cx="95.2" cy="20.3" rx="3.6" ry="3.7"></ellipse> <ellipse transform="matrix(0.9991 -4.256403e-02 4.256403e-02 0.9991 -0.975 4.309)" class="st2" cx="100.7" cy="25.1" rx="3.6" ry="3.7"></ellipse> <ellipse transform="matrix(0.9991 -4.256403e-02 4.256403e-02 0.9991 -1.2002 4.5266)" class="st2" cx="105.7" cy="30.4" rx="3.6" ry="3.7"></ellipse> <ellipse transform="matrix(0.9991 -4.256403e-02 4.256403e-02 0.9991 -1.4563 4.7067)" class="st2" cx="109.8" cy="36.6" rx="3.6" ry="3.7"></ellipse> <ellipse transform="matrix(0.9991 -4.256403e-02 4.256403e-02 0.9991 -1.7382 4.8575)" class="st2" cx="113.2" cy="43.2" rx="3.6" ry="3.7"></ellipse> <ellipse transform="matrix(0.9991 -4.256403e-02 4.256403e-02 0.9991 -2.0426 4.9662)" class="st2" cx="115.6" cy="50.4" rx="3.6" ry="3.7"></ellipse> <ellipse transform="matrix(0.9991 -4.256403e-02 4.256403e-02 0.9991 -2.3649 5.0327)" class="st2" cx="117" cy="58.1" rx="3.6" ry="3.7"></ellipse> <ellipse transform="matrix(0.9991 -4.256403e-02 4.256403e-02 0.9991 -2.6922 5.0567)" class="st2" cx="117.4" cy="65.8" rx="3.6" ry="3.7"></ellipse> <ellipse transform="matrix(0.9991 -4.256403e-02 4.256403e-02 0.9991 -3.0078 5.0335)" class="st2" cx="116.7" cy="73.1" rx="3.6" ry="3.7"></ellipse> <ellipse transform="matrix(0.9991 -4.256403e-02 4.256403e-02 0.9991 -3.3159 4.9634)" class="st2" cx="114.9" cy="80.3" rx="3.6" ry="3.7"></ellipse> <ellipse transform="matrix(0.9991 -4.256403e-02 4.256403e-02 0.9991 -3.6121 4.8506)" class="st2" cx="112.1" cy="87.3" rx="3.6" ry="3.7"></ellipse> <ellipse transform="matrix(0.9991 -4.256403e-02 4.256403e-02 0.9991 -3.888 4.6988)" class="st2" cx="108.4" cy="93.7" rx="3.6" ry="3.7"></ellipse> <ellipse transform="matrix(0.9991 -4.256403e-02 4.256403e-02 0.9991 -4.1472 4.517)" class="st2" cx="104" cy="99.6" rx="3.6" ry="3.7"></ellipse> <ellipse transform="matrix(0.9991 -4.256403e-02 4.256403e-02 0.9991 -4.3777 4.2962)" class="st2" cx="98.7" cy="105" rx="3.6" ry="3.7"></ellipse> <ellipse transform="matrix(0.9991 -4.256403e-02 4.256403e-02 0.9991 -4.5829 4.0537)" class="st2" cx="92.9" cy="109.6" rx="3.6" ry="3.7"></ellipse> <ellipse transform="matrix(0.9991 -4.256403e-02 4.256403e-02 0.9991 -4.7506 3.7804)" class="st2" cx="86.4" cy="113.5" rx="3.6" ry="3.7"></ellipse> <ellipse transform="matrix(0.9991 -4.256403e-02 4.256403e-02 0.9991 -4.8802 3.4893)" class="st2" cx="79.5" cy="116.3" rx="3.6" ry="3.7"></ellipse> <ellipse transform="matrix(0.9991 -4.256403e-02 4.256403e-02 0.9991 -4.9678 3.1761)" class="st2" cx="72.1" cy="118.2" rx="3.6" ry="3.7"></ellipse> </g> <g> <path class="st2" d="M57,85.9h-1.4v-5.5c-0.5,0.5-1.2,0.9-1.9,1.1v-1.3c0.4-0.1,0.8-0.4,1.2-0.7c0.4-0.3,0.7-0.7,0.9-1.2H57V85.9z "></path> <path class="st2" d="M60.4,81.9c-0.4-0.2-0.6-0.4-0.8-0.7c-0.2-0.3-0.3-0.6-0.3-0.9c0-0.6,0.2-1,0.6-1.4c0.4-0.4,1-0.6,1.7-0.6 s1.3,0.2,1.7,0.6s0.6,0.8,0.6,1.4c0,0.4-0.1,0.7-0.3,0.9c-0.2,0.3-0.4,0.5-0.8,0.6c0.4,0.2,0.7,0.4,1,0.7c0.2,0.3,0.3,0.7,0.3,1.1 c0,0.7-0.2,1.3-0.7,1.7c-0.4,0.4-1,0.7-1.8,0.7c-0.7,0-1.3-0.2-1.7-0.5c-0.5-0.4-0.8-1-0.8-1.8c0-0.4,0.1-0.8,0.3-1.1 C59.7,82.2,60,82.1,60.4,81.9z M60.6,83.6c0,0.4,0.1,0.7,0.3,0.9c0.2,0.2,0.5,0.3,0.8,0.3s0.5-0.1,0.7-0.3 c0.2-0.2,0.3-0.5,0.3-0.9s-0.1-0.6-0.3-0.9c-0.2-0.2-0.5-0.3-0.8-0.3c-0.4,0-0.6,0.1-0.8,0.4C60.7,83.1,60.6,83.4,60.6,83.6z M60.7,80.4c0,0.3,0.1,0.5,0.2,0.7c0.2,0.2,0.4,0.2,0.7,0.2s0.5-0.1,0.7-0.2c0.2-0.2,0.2-0.4,0.2-0.7c0-0.3-0.1-0.5-0.2-0.7 c-0.2-0.2-0.4-0.2-0.6-0.2c-0.3,0-0.5,0.1-0.7,0.2C60.8,79.9,60.7,80.1,60.7,80.4z"></path> <path class="st2" d="M65.1,84l1.4-0.1c0,0.3,0.2,0.6,0.4,0.8c0.2,0.2,0.4,0.3,0.7,0.3c0.3,0,0.6-0.1,0.8-0.4 c0.2-0.2,0.3-0.6,0.3-1.1s-0.1-0.8-0.3-1c-0.2-0.2-0.5-0.3-0.8-0.3c-0.4,0-0.8,0.2-1.1,0.6l-1.2-0.2l0.7-3.9h3.8v1.4h-2.7 l-0.2,1.3c0.3-0.2,0.7-0.2,1-0.2c0.6,0,1.2,0.2,1.6,0.7s0.7,1.1,0.7,1.8c0,0.6-0.2,1.2-0.5,1.7c-0.5,0.7-1.2,1-2,1 c-0.7,0-1.3-0.2-1.7-0.6C65.4,85.1,65.1,84.6,65.1,84z"></path> <path class="st2" d="M70.9,84l1.4-0.1c0,0.3,0.2,0.6,0.4,0.8c0.2,0.2,0.4,0.3,0.7,0.3c0.3,0,0.6-0.1,0.8-0.4 c0.2-0.2,0.3-0.6,0.3-1.1s-0.1-0.8-0.3-1c-0.2-0.2-0.5-0.3-0.8-0.3c-0.4,0-0.8,0.2-1.1,0.6l-1.2-0.2l0.7-3.9h3.8v1.4h-2.7 l-0.2,1.3c0.3-0.2,0.7-0.2,1-0.2c0.6,0,1.2,0.2,1.6,0.7S76,83,76,83.7c0,0.6-0.2,1.2-0.5,1.7c-0.5,0.7-1.2,1-2,1 c-0.7,0-1.3-0.2-1.7-0.6C71.3,85.1,71,84.6,70.9,84z"></path> </g> <path class="st2" d="M85.8,101.1c-0.8,0-1.4-0.3-1.1-1.3c0.4-1,0.5-1.6-1.4-1.4s-2.1-1.4-2.1-1.4s-1.4-0.7-1.9,0.4 c0,0-2.8,0.1-3.9,0.1C74.5,96.3,73,97,73,97s-1.4-0.6-3.6-3.1c-3-0.6-14.2,0-14.2,0s-1.4,0.2-2.3,0.9c-1.4,0.5-2.8,2.1-2.8,2.1 h-5.5c0,0-0.3,0.9-0.8,0.9c-0.4,0.1-2.6,0-2.6,0s-1.2,0.4,0,1.6s0.4,1.6,0.4,1.6l0.4,0.8l5.2,0.1c0,1.6,1.5,2.8,3.2,2.8 s3.2-1.2,3.2-2.7l20.9,0.3c0.1,1.5,1.5,2.7,3.2,2.7s3.1-1.1,3.2-2.6l4.7,0.1C85.8,102.6,86.6,101.1,85.8,101.1z M53.9,97.1 L53.9,97.1c-0.2,0-0.3-0.1-0.4-0.3c-0.1-0.2-0.1-0.4,0-0.6v-0.1h0.1c0.3,0,0.5,0.2,0.6,0.4C54.3,96.7,54.2,97,53.9,97.1z M70.5,97.7h-3.4c0,0-10.1,0.4-10.3-0.8c2.4-2.6,12.3-1.8,12.3-1.8s1.2,1.2,1.8,1.9C71.5,97.8,70.5,97.7,70.5,97.7z"></path> </g> </svg>